<svg width="30" height="40" viewBox="0 0 30 40" fill="none" xmlns="http://www.w3.org/2000/svg">
<path d="M11.6374 0.300759L11.6399 0.303181C11.6435 0.286071 11.6496 0.271462 11.657 0.256775C11.8852 -0.199709 13.6162 -0.0312716 15.524 0.632711C17.3806 1.27966 18.7197 2.15615 18.5781 2.62489L16.5566 16.5503L8.52471 15.6666L11.6374 0.300759Z" fill="#DA4453"/>
<path d="M9.64775 5.72786H9.64651C9.64408 5.70833 9.64166 5.69122 9.63674 5.67169C9.48658 5.1077 7.91682 5.02958 6.12971 5.50325C4.38902 5.96223 3.08535 6.77278 3.15495 7.33668L3.28191 23.8206L10.5791 24.0525L9.64775 5.72786Z" fill="#CC374D"/>
<path d="M20.5227 3.14732C20.6094 3.09849 20.4287 3.18396 20.5227 3.14732Z" fill="#ED5564"/>
<path d="M20.4458 11.3795L23.0848 8.81129C23.0848 8.81129 25.7239 7.04614 24.1431 5.0613C23.0726 3.71364 21.5175 2.01693 20.1528 2.55896C10.866 6.27465 7.44198 13.5865 7.44198 13.5865C7.44198 13.5865 2.50683 8.69168 1.87332 10.6178C-7.28049 38.4272 19.7048 42.2356 26.9788 39.0644C31.5893 37.0526 30.5492 16.4331 20.4458 11.3795Z" fill="#ED5564"/>
<path d="M20.5227 3.14732C20.6094 3.09849 20.4287 3.18396 20.5227 3.14732Z" fill="#ED5564"/>
<path d="M3.11589 10.3078C2.5141 10.0758 2.04175 10.1051 1.87332 10.6178C-7.28049 38.4272 19.7048 42.2356 26.9788 39.0644C27.561 38.8105 28.053 38.2587 28.4485 37.4799C21.0244 40.4486 -4.65729 36.645 3.11589 10.3078Z" fill="white"/>
<path d="M20.5227 3.14732C20.6094 3.09849 20.4287 3.18396 20.5227 3.14732Z" fill="#ED5564"/>
<path d="M20.4458 11.3795L20.6435 11.1866C20.0808 11.6578 19.1238 12.5757 18.2607 13.9649C17.0741 15.8764 15.8389 19.0868 16.6982 23.53C16.7751 23.928 17.1242 24.2063 17.5148 24.2063C17.5673 24.2063 17.621 24.2014 17.6735 24.1892C18.1264 24.1037 18.4218 23.6667 18.3339 23.215C17.7321 20.0999 18.1703 17.307 19.6377 14.9072C20.5459 13.4228 21.5919 12.5488 21.9398 12.2827C21.465 11.9435 20.9683 11.6407 20.4458 11.3795Z" fill="#DA4453"/>
</svg>
