<svg width="25" height="25" viewBox="0 0 25 25" fill="none" xmlns="http://www.w3.org/2000/svg">
<path d="M23.8944 12.4557L22.8521 11.5951L23.2428 9.90217L23.4381 8.98359L21.9411 6.92588L22.2661 5.82576L21.8755 3.94667L20.3785 2.47803H18.4253C18.4253 2.47803 17.319 3.07922 17.644 2.47803C17.9698 1.87607 16.0166 0.692007 16.0166 0.692007H15.1704L13.1847 1.44803L12.7159 1.83026L11.199 0.672915H9.70124L8.52932 0.692007L7.50731 1.83031L7.34402 2.47808H6.251L5.07913 2.99831L3.25598 3.57893L2.93056 5.01246L2.66999 7.09146L1.69339 8.20921V9.50396L2.29877 11.3411L1.69339 12.149L0.78199 13.2561V15.274L1.69339 16.7381V18.5287L2.86532 21.2631C2.86532 21.2631 4.62323 22.1748 4.8838 22.3044C5.14398 22.4349 5.59987 22.3044 5.59987 22.3044L7.03198 23.867L8.39923 24.3224H9.44111L11.5244 23.4115L12.7158 22.4997L13.2366 23.6717L15.3001 24.3224H16.3423L17.9049 23.9974L18.9654 22.1092L19.5323 22.3044L21.4207 21.9138L22.788 20.5307L23.3083 18.2686V16.7381L24.1736 15.7539L24.6756 14.0365L23.8944 12.4557Z" fill="#EC87C0"/>
<path d="M25 14.3562C25 13.1577 24.3705 12.1055 23.4237 11.5135C23.8136 10.9664 24.0425 10.2974 24.0425 9.57491C24.0425 8.49076 23.5267 7.52711 22.7271 6.91602C22.8552 6.54223 22.9262 6.14168 22.9262 5.72361C22.9262 3.70789 21.2911 2.07368 19.2753 2.07368C18.8678 2.07368 18.4757 2.14082 18.1094 2.2644C17.7356 0.956759 16.5316 0 15.1041 0C14.0168 0 13.06 0.55465 12.5 1.3969C11.9399 0.55465 10.9828 0 9.8959 0C8.46839 0 7.26438 0.956759 6.89091 2.2644C6.52467 2.14082 6.1325 2.07368 5.72431 2.07368C3.70812 2.07368 2.07376 3.70789 2.07376 5.72361C2.07376 6.14168 2.14432 6.54223 2.27329 6.91602C1.47332 7.52716 0.95716 8.49076 0.95716 9.57491C0.95716 10.2974 1.18643 10.9664 1.57596 11.5135C0.629448 12.1055 0 13.1577 0 14.3562C0 15.3976 0.474991 16.3276 1.22002 16.9418C1.10405 17.3508 1.04149 17.7818 1.04149 18.2281C1.04149 20.7931 3.10192 22.8759 5.65795 22.9141C6.31254 24.1546 7.6146 25 9.11463 25C10.5616 25 11.8251 24.2126 12.5 23.0438C13.1748 24.2127 14.438 25 15.8854 25C17.3854 25 18.6878 24.1547 19.3424 22.9141C21.8984 22.8759 23.9585 20.7931 23.9585 18.2281C23.9585 17.7818 23.896 17.3508 23.78 16.9418C24.5246 16.3276 25 15.3976 25 14.3562ZM9.11463 23.9577C7.53486 23.9577 6.24999 22.6729 6.24999 21.0937C6.24999 20.2926 6.60133 19.5464 7.13278 19.0261C7.23083 18.9315 7.29148 18.7995 7.29148 18.6523C7.29148 18.3646 7.05841 18.132 6.77074 18.132C6.62883 18.132 6.49986 18.1884 6.40601 18.2808C5.64574 18.9933 5.20815 19.9691 5.20815 21.0937C5.20815 21.3508 5.23335 21.6026 5.28101 21.8459C4.47679 21.7483 3.73293 21.3874 3.15114 20.8053C2.46251 20.1171 2.08333 19.2015 2.08333 18.2281C2.08333 17.2538 2.46256 16.3383 3.15114 15.6501C3.83978 14.9612 4.75533 14.582 5.72929 14.582C6.03942 14.582 6.34384 14.6201 6.63684 14.6948C6.67996 14.7063 6.72459 14.7132 6.77074 14.7132C7.05841 14.7132 7.29148 14.4798 7.29148 14.1921C7.29148 13.938 7.10948 13.7267 6.86879 13.6809C6.50367 13.5894 6.12219 13.5405 5.72929 13.5405C3.98085 13.5405 2.45607 14.498 1.65038 15.9163C1.27271 15.5051 1.04149 14.9573 1.04149 14.3561C1.04149 13.555 1.44778 12.8226 2.12874 12.3961L2.60676 12.097C2.74828 12.004 2.84174 11.8437 2.84174 11.6614C2.84174 11.5507 2.80663 11.447 2.74711 11.3631L2.42437 10.9091C2.14627 10.5185 1.999 10.057 1.999 9.57481C1.999 8.89501 2.29541 8.28314 2.76542 7.8612C3.42846 8.77753 4.50653 9.37413 5.72431 9.37413C6.01193 9.37413 6.24999 9.14067 6.24999 8.85302C6.24999 8.56537 6.01344 8.3327 5.72587 8.3327C4.28762 8.3327 3.11569 7.16231 3.11569 5.72346C3.11569 4.2853 4.2861 3.11491 5.72436 3.11491C6.09934 3.11491 6.45567 3.19504 6.7784 3.33767C6.88788 4.96427 8.24181 6.24906 9.89595 6.24906C10.1836 6.24906 10.4167 6.01634 10.4167 5.728C10.4167 5.44035 10.1836 5.20763 9.89595 5.20763C8.74732 5.20763 7.81262 4.27304 7.81262 3.12404C7.81262 1.97582 8.74693 1.04123 9.89595 1.04123C11.0446 1.04123 11.9793 1.97587 11.9793 3.12404V8.33265H11.9785C11.9709 8.61264 11.7408 8.83847 11.4582 8.83847C11.1705 8.83847 10.9374 9.07192 10.9374 9.35958C10.9374 9.64723 11.1705 9.88063 11.4582 9.88063C11.6409 9.88063 11.8164 9.8486 11.9793 9.79137V14.0615C11.9793 14.9229 11.2781 15.6232 10.4167 15.6232C10.129 15.6232 9.89595 15.8567 9.89595 16.1443C9.89595 16.432 10.129 16.6654 10.4167 16.6654C11.0031 16.6654 11.544 16.4716 11.9793 16.1443V21.0935C11.9792 22.6729 10.694 23.9577 9.11463 23.9577ZM23.3497 15.9164C22.5439 14.4981 21.0195 13.5406 19.2708 13.5406C18.8778 13.5406 18.4963 13.5895 18.1308 13.681C17.8905 13.7268 17.7081 13.9381 17.7081 14.1922C17.7081 14.4799 17.9416 14.7133 18.2293 14.7133C18.2758 14.7133 18.32 14.7064 18.3628 14.6949C18.6558 14.6202 18.961 14.5821 19.2708 14.5821C20.2444 14.5821 21.1599 14.9613 21.8489 15.6502C22.5378 16.3384 22.9163 17.2539 22.9163 18.2282C22.9163 19.2017 22.5378 20.1172 21.8489 20.8054C21.2667 21.3875 20.5236 21.7484 19.7194 21.846C19.7667 21.6027 19.7919 21.3508 19.7919 21.0938C19.7919 19.9692 19.3547 18.9934 18.594 18.2809C18.5001 18.1885 18.3712 18.1321 18.2293 18.1321C17.9416 18.1321 17.7081 18.3648 17.7081 18.6524C17.7081 18.7996 17.7692 18.9316 17.8668 19.0262C18.3987 19.5465 18.7504 20.2927 18.7504 21.0938C18.7504 22.673 17.4655 23.9578 15.8854 23.9578C14.306 23.9578 13.0208 22.673 13.0208 21.0938V16.1445C13.4561 16.4718 13.997 16.6656 14.583 16.6656C14.8714 16.6656 15.1041 16.4322 15.1041 16.1445C15.1041 15.8569 14.8714 15.6234 14.583 15.6234C13.7223 15.6234 13.0208 14.923 13.0208 14.0617V9.79157C13.1837 9.84879 13.3592 9.88083 13.5415 9.88083C13.8291 9.88083 14.0626 9.64742 14.0626 9.35977C14.0626 9.07212 13.8291 8.83867 13.5415 8.83867C13.2592 8.83867 13.0292 8.61283 13.0216 8.33284H13.0208V3.12419C13.0208 1.97597 13.9558 1.04138 15.1041 1.04138C16.2524 1.04138 17.1878 1.97602 17.1878 3.12419C17.1878 4.27319 16.2524 5.20778 15.1041 5.20778C14.8164 5.20778 14.583 5.44055 14.583 5.72815C14.583 6.01649 14.8164 6.24921 15.1041 6.24921C16.7582 6.24921 18.1125 4.96441 18.2216 3.33782C18.5444 3.19514 18.9007 3.11506 19.2754 3.11506C20.7143 3.11506 21.8847 4.28544 21.8847 5.72361C21.8847 7.16246 20.7128 8.33284 19.2738 8.33284C18.9862 8.33284 18.7504 8.56557 18.7504 8.85317C18.7504 9.14077 18.9885 9.37427 19.2754 9.37427C20.4931 9.37427 21.5719 8.77763 22.2342 7.86135C22.7042 8.28328 23.001 8.89516 23.001 9.57496C23.001 10.0571 22.8537 10.5187 22.5752 10.9093L22.2525 11.3632C22.193 11.4472 22.1579 11.5509 22.1579 11.6615C22.1579 11.8439 22.2517 12.0041 22.3928 12.0972L22.8713 12.3963C23.5519 12.8227 23.9586 13.5551 23.9586 14.3563C23.9585 14.9574 23.7273 15.5052 23.3497 15.9164Z" fill="#D770AD"/>
</svg>
