<svg width="40" height="22" viewBox="0 0 40 22" fill="none" xmlns="http://www.w3.org/2000/svg">
<path d="M20 20.8324C16.1682 20.8324 12.3621 19.8462 8.99052 17.981C5.88381 16.2598 3.13718 13.7964 1.01682 10.8325C3.13718 7.86854 5.88373 5.40286 8.99044 3.68407C12.362 1.81879 16.1682 0.83252 19.9999 0.83252C23.8317 0.83252 27.6379 1.81879 31.0094 3.68407C34.116 5.40286 36.8627 7.86862 38.9843 10.8325C36.8627 13.7964 34.116 16.2598 31.0094 17.981C27.638 19.8462 23.8317 20.8324 20 20.8324Z" fill="#F5F7FA"/>
<path d="M29.1662 9.16498C29.1662 14.2285 25.0622 18.3325 20 18.3325C14.9378 18.3325 10.8337 14.2285 10.8337 9.16498C10.8337 4.104 14.9377 0 20 0C25.0622 0 29.1662 4.104 29.1662 9.16498Z" fill="#A0D468"/>
<path d="M23.3337 9.16498C23.3337 11.0058 21.8407 12.5 20 12.5C18.1592 12.5 16.6663 11.0059 16.6663 9.16498C16.6663 7.32416 18.1592 5.83256 20 5.83256C21.8407 5.83256 23.3337 7.32423 23.3337 9.16498Z" fill="#8CC153"/>
<path d="M20 0C11.7627 0 4.46901 4.27244 0 10.8325C4.46901 17.3926 11.7627 21.665 20 21.665C28.2372 21.665 35.5309 17.3925 40 10.8325C35.5309 4.27244 28.2372 0 20 0ZM35.0207 14.0648C33.6695 15.305 32.1851 16.3769 30.6054 17.2509C29.0026 18.1396 27.301 18.8231 25.5481 19.2845C23.7438 19.7581 21.8774 19.9998 20 19.9998C18.1225 19.9998 16.2561 19.7581 14.4519 19.2845C12.7002 18.8231 10.9973 18.1396 9.39452 17.2509C7.81495 16.3768 6.33054 15.305 4.97926 14.0648C3.91236 13.0859 2.92968 12.0019 2.04958 10.8324C2.92976 9.66296 3.91236 8.57895 4.97926 7.60002C6.33054 6.35976 7.81495 5.28801 9.39452 4.41401C10.9973 3.52532 12.7002 2.84171 14.4519 2.38029C16.2561 1.90669 18.1225 1.66496 20 1.66496C21.8773 1.66496 23.7438 1.90669 25.5481 2.38029C27.3011 2.84171 29.0026 3.52532 30.6054 4.41401C32.1851 5.28809 33.6695 6.35976 35.0207 7.60002C36.0876 8.57895 37.0702 9.66296 37.9504 10.8324C37.0702 12.002 36.0876 13.0859 35.0207 14.0648Z" fill="#E6E9ED"/>
</svg>
