<svg width="19" height="25" viewBox="0 0 19 25" fill="none" xmlns="http://www.w3.org/2000/svg">
<path d="M15.9461 14.0595C15.9461 14.0595 13.8564 0 9.50005 0C5.14362 0 3.05395 14.0595 3.05395 14.0595C1.27506 14.6866 0 16.3803 0 18.3731C0 20.8954 2.0431 22.9408 4.56566 22.9461C5.66427 24.1897 7.46535 25 9.5 25C11.5346 25 13.3358 24.1897 14.4343 22.9461C16.9569 22.9408 19 20.8954 19 18.3731C19 16.3803 17.725 14.6865 15.9461 14.0595Z" fill="#EAC6BB"/>
<path d="M15.9461 14.0595C15.9461 14.0595 13.8564 0 9.50005 0C9.1366 0 8.78922 0.0984398 8.45788 0.277741C12.105 2.24766 13.861 14.0595 13.861 14.0595C15.6399 14.6866 16.9158 16.3803 16.9158 18.3731C16.9158 20.8954 14.8719 22.9408 12.3494 22.9461C11.4423 23.9723 10.0574 24.7032 8.45788 24.9275C8.79607 24.9749 9.14417 25 9.5 25C11.5346 25 13.3358 24.1897 14.4343 22.9461C16.9569 22.9408 19 20.8954 19 18.3731C19 16.3803 17.725 14.6865 15.9461 14.0595Z" fill="white"/>
</svg>
