<svg width="20" height="25" viewBox="0 0 20 25" fill="none" xmlns="http://www.w3.org/2000/svg">
<path d="M20 6.77031C20 3.03115 16.9362 0 13.1578 0C12.0183 0 10.9444 0.275439 10 0.762939C9.05483 0.275439 7.98088 0 6.84219 0C3.06377 0 0 3.03115 0 6.77031C0 7.798 0.23205 8.77148 0.645279 9.64355L2.70679 14.0625C2.21338 15.625 3.0167 25 6.31562 25C7.35331 25 8.98235 16.285 9.99921 16.2781C11.0161 16.2705 12.6451 25 13.6828 25C16.9817 25 17.7851 15.625 17.2917 14.0625L19.3547 9.64355C19.768 8.77153 20 7.798 20 6.77031Z" fill="#E6E9ED"/>
<path d="M13.6828 23.9578C12.6452 23.9578 11.0161 15.229 9.99926 15.2359C8.9824 15.2435 7.35336 23.9578 6.31567 23.9578C3.74842 23.9578 2.69218 18.28 2.58274 15.0253C2.46319 17.8963 3.44384 25 6.31562 25C7.35331 25 8.98235 16.285 9.99921 16.2781C11.0161 16.2705 12.6451 25 13.6828 25C16.5546 25 17.5353 17.8963 17.4158 15.0253C17.3063 18.28 16.2501 23.9578 13.6828 23.9578Z" fill="#CCD1D9"/>
<path d="M1.70843 2.2957C1.70843 2.2957 3.44384 1.7731 6.84219 2.08286C7.97624 2.18662 9.05483 2.35903 10 2.84658L10 0.762939C9.05483 0.275439 7.98088 0 6.84219 0C4.79686 0 2.96198 0.888086 1.70843 2.2957Z" fill="#CCD1D9"/>
<path d="M18.2916 2.2957C18.2916 2.2957 16.5562 1.7731 13.1578 2.08286C12.0238 2.18662 10.9444 2.35903 10 2.84658L10 0.762939C10.9444 0.275439 12.0183 0 13.1578 0C15.2031 0 17.038 0.888086 18.2916 2.2957Z" fill="#CCD1D9"/>
</svg>
