<svg width="16" height="25" viewBox="0 0 16 25" fill="none" xmlns="http://www.w3.org/2000/svg">
<path d="M14.4641 2.90917L12.2118 1.92346L9.35085 0.882082L7.62987 0.450239L4.94366 0.882082L1.61896 4.47473C1.61896 4.47473 0.748933 7.22204 0.748933 7.37615C0.748933 7.52952 0.748933 10.0495 0.748933 10.0495L0.135811 10.7231C0.135811 10.7231 0.978208 17.0586 0.958755 19.6113L1.61891 20.5589L2.23055 22.5173L4.48808 24.2263H6.53129L8.83255 22.9567L10.3067 21.08L11.4538 18.2456L12.7218 16.0102L13.4604 14.968L14.5597 11.4898L15.3722 8.2619V4.98889L14.4641 2.90917Z" fill="#EAC6BB"/>
<path d="M5.81966 25C5.47912 25 5.13638 24.9581 4.79359 24.8741C2.46656 24.2996 0.67418 21.8406 0.958755 19.6113C0.995367 19.326 1.2516 19.1254 1.53015 19.162C1.80947 19.1994 2.00663 19.4603 1.97001 19.7457C1.86845 20.5399 2.14179 21.45 2.7183 22.2427C3.30977 23.0545 4.15289 23.6443 5.03338 23.8617C6.04378 24.1104 7.06612 23.8693 7.98992 23.1651C9.16196 22.2709 10.1537 20.6848 10.9371 18.4524L10.9603 18.3868L10.9991 18.3296C11.0118 18.3113 12.3052 16.4078 13.4067 13.8832C15.2155 9.74045 15.1378 7.13351 14.7539 5.67558C14.5486 4.89505 14.1976 4.2008 13.7114 3.61255C13.1752 2.96479 12.4568 2.42391 11.5756 2.00427C10.0141 1.26041 8.55075 0.946097 7.22739 1.06963C6.08182 1.17647 5.03782 1.61134 4.1245 2.36209C2.98715 3.29668 2.06035 4.73484 1.51447 6.41099C1.0358 7.8804 0.891651 9.40782 1.13063 10.4957C1.19185 10.7765 1.01936 11.0549 0.744536 11.1175C0.469711 11.1808 0.197037 11.0039 0.135811 10.7231C-0.141977 9.459 0.0119248 7.72395 0.546614 6.08213C1.15376 4.21828 2.19776 2.60848 3.48599 1.55026C5.08414 0.236514 7.85996 -0.914776 12.0065 1.05967C13.9706 1.99504 15.2267 3.45757 15.739 5.40692C16.084 6.71837 16.087 8.25419 15.748 9.97077C15.4814 11.3181 15.0049 12.783 14.3306 14.3249C13.285 16.7166 12.1066 18.5202 11.8744 18.8681C11.0253 21.263 9.92373 22.9895 8.59936 23.9996C7.73067 24.662 6.78523 25 5.81966 25Z" fill="#DBADA2"/>
<path d="M13.1788 6.2646C12.3865 4.6281 11.2671 3.58516 9.85117 3.16552C7.31543 2.41483 4.78532 3.96358 4.67854 4.02994C4.43808 4.17946 4.3619 4.49992 4.50829 4.74558C4.65464 4.99119 4.96833 5.06902 5.20879 4.91951C5.23116 4.90579 7.4581 3.54165 9.56741 4.16652C10.6973 4.5007 11.6047 5.36205 12.2649 6.72618C12.3537 6.91002 12.5345 7.01681 12.7219 7.01681C12.798 7.01681 12.8749 6.99928 12.9474 6.96266C13.1998 6.83522 13.3036 6.52247 13.1788 6.2646Z" fill="#DBADA2"/>
<path d="M8.05334 8.27724C6.55672 7.96976 5.09303 9.06309 5.0318 9.10962C4.80554 9.28131 4.75846 9.60783 4.92651 9.8382C5.09379 10.0694 5.4134 10.1175 5.63966 9.94655C5.65085 9.93737 6.81214 9.08521 7.85241 9.29884C8.33333 9.39728 8.72019 9.70924 9.03568 10.251C9.70707 11.4083 9.20522 12.1575 8.09736 13.6094C7.71724 14.1076 7.28632 14.6729 6.88904 15.3221C6.13406 16.5551 6.00186 17.6438 5.91449 18.3639C5.88313 18.6226 5.84055 18.9743 5.78009 19.059C5.76814 19.0628 5.73454 19.072 5.66356 19.0712C5.4806 19.0689 5.33047 18.9964 5.19158 18.8423C4.83985 18.4547 4.59638 17.5987 4.506 16.4322C4.43283 15.4808 4.48583 14.6523 4.4866 14.6446C4.506 14.3578 4.29393 14.1091 4.01313 14.0893C3.73157 14.0694 3.48886 14.2861 3.46946 14.5729C3.46721 14.6095 3.41048 15.4747 3.48886 16.5001C3.59937 17.9459 3.91979 18.972 4.44253 19.5496C4.77112 19.9128 5.1901 20.1081 5.65233 20.1126C5.6583 20.1126 5.66428 20.1126 5.67102 20.1126C6.26693 20.1126 6.55447 19.796 6.6904 19.5282C6.83527 19.2451 6.87709 18.8964 6.92642 18.4921C7.0071 17.8253 7.11832 16.9121 7.75309 15.8745C8.12274 15.2702 8.51859 14.7514 8.90205 14.2487C9.46135 13.5155 9.94457 12.8823 10.1932 12.1819C10.486 11.3548 10.3941 10.5492 9.91245 9.71911C9.44869 8.92036 8.82362 8.43593 8.05334 8.27724Z" fill="#DBADA2"/>
</svg>
