<svg width="40" height="36" viewBox="0 0 40 36" fill="none" xmlns="http://www.w3.org/2000/svg">
<path d="M32.5095 5.71891C28.0222 4.81686 26.0363 6.22063 23.2811 9.1502L23.2909 0.831261C23.2909 0.372271 22.1752 0 20.7958 0C19.4176 0 18.0004 0.288129 18.0004 0.748291C18.0004 0.748291 17.6622 21.4939 12.8954 22.4497C6.04745 23.823 -0.0291918 20.0938 0.000105503 32.4411C0.000105503 32.9013 1.117 33.2735 2.49522 33.2735C3.87461 33.2735 4.99033 32.9012 4.99033 32.4411C6.88973 25.9531 7.39755 33.1197 17.345 34.8336C34.8606 37.8499 49.3893 9.10872 32.5095 5.71891Z" fill="#F4BE8E"/>
<path d="M7.02395 29.8581C7.05325 29.8275 7.0777 29.7982 7.09723 29.7726C5.88753 28.9791 4.73642 29.7372 3.32531 32.441C3.32531 32.8036 2.63077 33.1111 1.66271 33.2258C1.78966 33.2405 1.91904 33.2515 2.05459 33.2601C2.06193 33.2613 2.07045 33.2613 2.07779 33.2613C2.14006 33.265 2.2035 33.2674 2.26826 33.2698C2.27803 33.2698 2.28779 33.2698 2.29756 33.2711C2.36225 33.2723 2.42936 33.2735 2.49522 33.2735C3.87461 33.2735 4.99033 32.9012 4.99033 32.4411C5.6787 30.0888 6.1841 29.5309 7.02395 29.8581Z" fill="white"/>
<path d="M21.6259 0.831261L21.6138 10.7897C22.1948 10.1732 22.7404 9.62388 23.2836 9.15028L23.2909 0.831261C23.2909 0.372271 22.1752 0 20.7958 0C20.493 0 20.1904 0.0135159 19.8998 0.0403913C20.9008 0.147737 21.6259 0.461412 21.6259 0.831261Z" fill="white"/>
<path d="M32.5095 5.71891C31.2547 5.46625 30.1951 5.39539 29.26 5.48578C29.7532 5.52851 30.2781 5.60539 30.8421 5.71891C46.6085 8.88536 34.9728 34.1659 19.099 35.0313C35.8005 35.9469 48.8216 8.9952 32.5095 5.71891Z" fill="white"/>
</svg>
