<svg width="40" height="40" viewBox="0 0 40 40" fill="none" xmlns="http://www.w3.org/2000/svg">
<path d="M40 20C40 31.0461 31.0449 40 20 40C8.95451 40 0 31.0461 0 20C0 8.95388 8.95451 0 20 0C31.0449 0 40 8.95388 40 20Z" fill="#ED5564"/>
<path d="M20 0C19.4384 0 18.883 0.023204 18.3332 0.0683613C28.5986 0.915569 36.6674 9.51538 36.6674 20C36.6674 30.4845 28.5986 39.0844 18.3332 39.9316C18.8831 39.9768 19.4385 40 20 40C31.0449 40 40 31.0461 40 20C40 8.95388 31.0449 0 20 0Z" fill="white"/>
<path d="M10.4816 20.2832C10.3357 18.2165 11.0821 17.8137 12.2132 17.2045C13.2831 16.6284 14.7479 15.8387 14.8065 13.3533C14.8536 11.3464 13.4692 9.06865 10.6934 6.58078C9.58311 5.58591 8.4784 4.76308 7.7069 4.22361C7.25283 4.57761 6.81453 4.95113 6.39281 5.34294C7.10571 5.82639 8.34957 6.71867 9.58132 7.82214C11.944 9.93891 13.1744 11.8382 13.1403 13.3141C13.1043 14.8315 12.4354 15.1916 11.4221 15.7372C10.2302 16.3805 8.59747 17.2606 8.81903 20.4004C8.91669 21.7822 9.63874 22.9834 10.965 23.9685C11.9422 24.6948 13.2557 25.304 14.8707 25.7812C17.5501 26.5735 20.1423 26.737 20.2516 26.7431L20.3516 25.0793C20.3266 25.078 17.8181 24.9182 15.3187 24.176C13.1927 23.5449 10.6281 22.3572 10.4816 20.2832Z" fill="#EAC6BB"/>
<path d="M28.5778 20.3724L25.0244 14.5557C24.9902 14.4923 24.9511 14.4312 24.9096 14.3751L23.5302 15.3078L23.5498 15.3407C23.5986 15.5738 23.3972 16.4967 22.5805 17.6075C21.7126 18.7868 20.666 19.4911 19.7791 19.4911C19.7394 19.4911 19.6992 19.4898 19.6595 19.4862L16.084 18.0995L14.4685 20.8962L17.1156 23.4327C16.1133 24.4471 15.7337 25.6386 15.5109 26.3381C15.4901 26.4016 15.4676 26.4736 15.4468 26.5359C15.3498 26.5676 15.3083 26.5701 15.2973 26.5701C15.2698 26.5652 15.1753 26.5212 15.1063 26.4895C14.8249 26.3602 14.3995 26.1636 13.6366 26.0806C13.5602 26.0721 13.4821 26.0684 13.4046 26.0684C12.5587 26.0684 11.6621 26.553 10.7392 27.5101C10.1191 28.1533 9.69859 28.793 9.68085 28.8199L9.32444 29.3644L12.0869 32.349L13.7007 31.6482C15.1661 33.2023 16.9881 34.0188 19.0047 34.0188C20.7857 34.0188 22.6454 33.3878 24.3837 32.194C25.9877 31.0917 27.3781 29.5694 28.296 27.9068C29.7863 25.21 29.8901 22.4633 28.5778 20.3724Z" fill="#DBADA2"/>
<path d="M25.5444 6.08397C21.2122 6.08397 17.6874 9.60937 17.6874 13.9429C17.6874 18.2751 21.2122 21.8005 25.5444 21.8005C29.8779 21.8005 33.4034 18.2751 33.4034 13.9429C33.4034 9.60937 29.8779 6.08397 25.5444 6.08397Z" fill="#EAC6BB"/>
</svg>
