<svg width="19" height="18" viewBox="0 0 19 18" fill="none" xmlns="http://www.w3.org/2000/svg">
<path d="M16.1357 15.4014C16.5942 15.8613 17.0278 16.2959 17.4375 16.707L17.4385 16.7061L16.1367 15.4014H16.1357ZM16.1357 15.4014L16.1367 15.4004L14.4453 13.7041L14.4443 13.7051C15.0429 14.3054 15.6061 14.87 16.1357 15.4014ZM5.69434 4.96289C5.96739 5.23661 6.24734 5.5171 6.53418 5.80469M5.69434 4.96289C4.18988 6.7456 3.22061 8.71217 2.71875 10.7266C3.35171 11.6017 4.12865 12.5237 5.08301 13.4756L5.09082 13.4834C6.1738 14.5624 7.24138 15.3896 8.26074 16.0234C10.0135 15.4702 11.7079 14.5557 13.25 13.2432C13.3548 13.1192 13.4605 12.9901 13.5664 12.8555L12.7539 12.041C12.5986 12.1665 11.4075 12.945 8.51074 10.0557C5.39923 6.95211 6.52887 5.81002 6.53418 5.80469M5.69434 4.96289C5.96739 5.23661 6.24734 5.5171 6.53418 5.80469M5.69434 4.96289C5.69939 4.9569 5.7049 4.9513 5.70996 4.94531L6.5498 5.78809L6.53418 5.80469M14.3701 11.7285C14.1925 12.0049 14.0088 12.264 13.8271 12.5098L13.0596 11.7412L13.2539 11.5479C13.4164 11.3858 13.6011 11.2553 13.7998 11.1572M14.3701 11.7285L13.7998 11.1572M14.3701 11.7285C14.5307 11.4787 14.6877 11.2159 14.8408 10.9414C14.48 10.925 14.1215 10.9985 13.7998 11.1572M14.3701 11.7285L13.7998 11.1572M6.83691 5.50293L6.55273 5.78613C6.25727 5.48939 5.97763 5.2084 5.71289 4.94238C5.76079 4.88582 5.80942 4.82962 5.8584 4.77344C5.90296 4.73523 5.94808 4.69668 5.99414 4.6582M6.83691 5.50293L5.99414 4.6582M6.83691 5.50293C6.90263 5.43739 6.96141 5.36692 7.0166 5.29492L6.20703 4.4834C6.13429 4.54179 6.06349 4.60027 5.99414 4.6582M6.83691 5.50293L5.99414 4.6582M7.03516 5.26953C7.02918 5.27758 7.02369 5.28597 7.01758 5.29395L6.20801 4.48242C6.21596 4.47604 6.22443 4.47026 6.23242 4.46387M7.03516 5.26953L6.23242 4.46387M7.03516 5.26953C7.16964 5.08843 7.27237 4.89066 7.34082 4.68164L6.73926 4.07812M7.03516 5.26953L6.23242 4.46387M6.23242 4.46387C6.39305 4.33552 6.56227 4.20704 6.73926 4.07812M6.73926 4.07812L7.34082 4.68066C7.45224 4.33994 7.47556 3.97391 7.4082 3.61621C7.17305 3.76798 6.95101 3.92388 6.73926 4.07812ZM3.36621 2.62891L4.95508 4.22168H4.9541C4.39443 3.66071 3.86521 3.13084 3.36523 2.62988M3.36621 2.62891L3.36523 2.62988M3.36621 2.62891L3.36523 2.62988M3.36621 2.62891L1.86719 1.12598L1.86523 1.12695C2.33377 1.5962 2.833 2.09659 3.36523 2.62988M13.8262 12.5107C13.74 12.6274 13.6555 12.7419 13.5693 12.8516C13.3125 12.5947 13.0421 12.3236 12.7568 12.0381L12.7725 12.0273L13.0586 11.7412L13.8262 12.5107ZM5.12109 5.45312L5.11914 5.4541C5.12791 5.44536 5.13665 5.43652 5.14551 5.42773L5.12109 5.45312Z" fill="#DADADA" stroke="#DADADA" stroke-width="33.3333"/>
</svg>
